# 3ds Max Wavefront OBJ Exporter v0.97b - (c)2007 guruware
# File Created: 03.08.2012 18:54:14

mtllib data/deco/archDoorway/archDoorway.mtl

#
# object Box001
#

v  -0.4404 0.0000 0.0400
v  -0.5000 0.0000 0.0400
v  -0.4404 0.0000 -0.0400
v  -0.5000 0.0000 -0.0400
v  0.5000 0.0000 0.0400
v  0.4407 0.0000 0.0400
v  0.5000 0.0000 -0.0400
v  0.4407 0.0000 -0.0400
v  -0.3585 1.0000 -0.0400
v  -0.5000 1.0000 -0.0400
v  -0.5000 1.0000 0.0400
v  -0.3585 1.0000 0.0400
v  -0.0110 1.0000 -0.0400
v  -0.0110 1.0000 0.0400
v  0.5000 1.0000 -0.0400
v  0.3585 1.0000 -0.0400
v  0.3585 1.0000 0.0400
v  0.5000 1.0000 0.0400
v  -0.5000 0.3333 0.0400
v  -0.4404 0.3333 0.0400
v  0.4407 0.3333 0.0400
v  0.5000 0.3333 0.0400
v  -0.5000 0.5654 0.0400
v  -0.3923 0.6386 0.0400
v  0.3926 0.6386 0.0400
v  0.5000 0.5654 0.0400
v  -0.5000 0.8321 0.0400
v  -0.2709 0.8798 0.0400
v  -0.0134 0.9472 0.0400
v  0.5000 0.8321 0.0400
v  0.2712 0.8798 0.0400
v  0.5000 0.3333 -0.0400
v  0.5000 0.5654 -0.0400
v  0.5000 0.8321 -0.0400
v  0.4407 0.3333 -0.0400
v  -0.4404 0.3333 -0.0400
v  -0.5000 0.3333 -0.0400
v  0.3926 0.6386 -0.0400
v  -0.3923 0.6386 -0.0400
v  -0.5000 0.5654 -0.0400
v  0.2712 0.8798 -0.0400
v  -0.0110 0.9472 -0.0400
v  -0.5000 0.8321 -0.0400
v  -0.2709 0.8798 -0.0400
v  -0.3719 0.3280 -0.0400
v  -0.3717 0.0000 0.0400
v  -0.3717 -0.0000 -0.0400
v  -0.3719 0.3280 0.0400
v  -0.3269 0.6176 -0.0400
v  -0.3269 0.6176 0.0400
v  0.3722 0.3280 -0.0400
v  0.3720 0.0000 -0.0400
v  0.3722 0.3280 0.0400
v  0.3720 0.0000 0.0400
v  0.2285 0.8259 -0.0400
v  0.3272 0.6176 -0.0400
v  0.2286 0.8259 0.0400
v  0.3272 0.6176 0.0400
v  -0.0107 0.8785 -0.0400
v  -0.0123 0.8785 0.0400
v  -0.2277 0.8264 0.0400
v  -0.2277 0.8263 -0.0400
v  -0.3869 0.3181 -0.0869
v  -0.4254 0.0039 -0.0869
v  -0.4254 0.3211 -0.0869
v  -0.3867 0.0039 -0.0869
v  -0.3414 0.6110 -0.0869
v  -0.3779 0.6229 -0.0869
v  -0.2382 0.8282 -0.0869
v  -0.2606 0.8559 -0.0869
v  -0.0109 0.9207 -0.0869
v  -0.0108 0.8828 -0.0868
v  0.2389 0.8279 -0.0869
v  0.2609 0.8558 -0.0869
v  0.3782 0.6229 -0.0869
v  0.3417 0.6110 -0.0869
v  0.4257 0.3211 -0.0869
v  0.3872 0.3181 -0.0869
v  0.4257 0.0039 -0.0869
v  0.3870 0.0039 -0.0869
v  0.3872 0.3181 0.0869
v  0.4257 0.0039 0.0869
v  0.4257 0.3211 0.0869
v  0.3870 0.0039 0.0869
v  0.3417 0.6110 0.0869
v  0.3782 0.6229 0.0869
v  0.2390 0.8279 0.0869
v  0.2609 0.8558 0.0869
v  -0.0132 0.9207 0.0869
v  -0.0124 0.8828 0.0869
v  -0.2381 0.8282 0.0869
v  -0.2605 0.8560 0.0869
v  -0.3779 0.6229 0.0869
v  -0.3414 0.6110 0.0869
v  -0.4254 0.3211 0.0869
v  -0.3869 0.3181 0.0869
v  -0.4254 0.0039 0.0869
v  -0.3867 0.0039 0.0869
# 98 vertices

vn 0.0000 -1.0000 -0.0000
vn 0.0000 1.0000 -0.0000
vn 0.0000 0.0000 1.0000
vn 1.0000 -0.0000 -0.0000
vn 1.0000 0.0000 -0.0000
vn 0.0000 0.0000 -1.0000
vn -1.0000 0.0000 -0.0000
vn 1.0000 0.0006 -0.0000
vn 0.9881 -0.1535 0.0000
vn 0.9881 -0.1535 -0.0000
vn -1.0000 0.0006 0.0000
vn -0.9038 -0.4280 0.0004
vn -0.9039 -0.4278 -0.0000
vn -0.2146 -0.9767 -0.0004
vn -0.2134 -0.9770 -0.0042
vn 0.2351 -0.9720 0.0004
vn 0.2336 -0.9723 0.0048
vn 0.9033 -0.4291 0.0000
vn 0.9032 -0.4292 -0.0004
vn -0.9881 -0.1535 -0.0000
vn -0.9881 -0.1535 0.0000
vn 0.0000 -1.0000 0.0000
vn -0.0000 -1.0000 -0.0000
vn 0.0000 -0.0000 -1.0000
vn -0.0000 0.0000 -1.0000
vn -0.0000 -0.0000 -1.0000
vn 0.0001 -0.0002 -1.0000
vn -0.0001 -0.0002 -1.0000
vn -0.0000 0.0000 1.0000
vn -0.0000 -0.0000 1.0000
vn -0.0001 -0.0001 1.0000
vn 0.0003 0.0007 1.0000
vn -0.0000 -0.0001 1.0000
vn 0.0000 -0.0001 1.0000
vn -0.0003 0.0007 1.0000
vn 0.0001 -0.0001 1.0000
vn 0.0000 -0.0000 1.0000
vn 0.9524 -0.0000 -0.3049
vn -0.0000 -0.9965 -0.0839
vn -0.9523 0.0006 -0.3050
vn -0.9506 -0.1477 -0.2731
vn -0.8828 -0.4181 -0.2141
vn -0.2137 -0.9728 -0.0893
vn 0.2326 -0.9684 -0.0903
vn 0.8824 -0.4192 -0.2138
vn 0.9506 -0.1477 -0.2731
vn 0.9523 0.0006 -0.3050
vn -0.9524 0.0000 -0.3049
vn -0.9304 0.1466 -0.3361
vn -0.8216 0.4137 -0.3921
vn -0.2201 0.8487 -0.4810
vn -0.2201 0.8487 -0.4809
vn 0.2035 0.8524 -0.4817
vn 0.8216 0.4137 -0.3921
vn 0.9304 0.1466 -0.3361
vn -0.9524 0.0000 0.3049
vn 0.0000 -0.9965 0.0839
vn 0.9523 0.0006 0.3050
vn 0.9506 -0.1477 0.2731
vn 0.8823 -0.4193 0.2138
vn 0.2341 -0.9680 0.0905
vn -0.2125 -0.9731 0.0893
vn -0.8829 -0.4179 0.2141
vn -0.9506 -0.1477 0.2731
vn -0.9523 0.0006 0.3050
vn 0.9524 0.0000 0.3049
vn 0.9304 0.1466 0.3361
vn 0.8217 0.4137 0.3921
vn 0.2019 0.8528 0.4817
vn -0.2220 0.8483 0.4808
vn -0.8217 0.4137 0.3921
vn -0.9304 0.1466 0.3361
vn 0.0000 0.0002 -1.0000
vn -0.0000 -0.0006 1.0000
vn 1.0000 -0.0006 -0.0000
vn 0.9881 0.1535 0.0000
vn 0.9881 0.1535 -0.0000
vn 0.9038 0.4280 0.0000
vn 0.9039 0.4278 -0.0004
vn 0.2146 0.9767 0.0004
vn 0.2134 0.9770 0.0042
vn -0.2351 0.9720 -0.0048
vn -0.2336 0.9723 -0.0004
vn -0.9032 0.4292 0.0004
vn -0.9033 0.4291 -0.0000
vn -0.9881 0.1535 0.0000
vn -0.9881 0.1535 -0.0000
vn -1.0000 -0.0006 0.0000
# 88 vertex normals

vt 0.9095 1.5685 0.0000
vt 0.9095 1.5257 0.0000
vt 0.9461 1.5685 0.0000
vt 0.9461 1.5257 0.0000
vt 0.9095 -0.6304 0.0000
vt 0.9095 -0.6730 0.0000
vt 0.9461 -0.6304 0.0000
vt 0.9461 -0.6730 0.0000
vt 0.9461 0.7053 0.0000
vt 0.9461 0.8070 0.0000
vt 0.9095 0.8070 0.0000
vt 0.9095 0.7053 0.0000
vt 0.9461 0.4556 0.0000
vt 0.9095 0.4556 0.0000
vt 0.9461 0.0883 0.0000
vt 0.9461 0.1900 0.0000
vt 0.9095 0.1900 0.0000
vt 0.9095 0.0883 0.0000
vt 0.0121 0.6659 0.0000
vt 0.0121 0.9946 0.0000
vt 0.0708 0.6659 0.0000
vt 0.0708 0.9946 0.0000
vt 0.9397 0.6659 0.0000
vt 0.9981 0.9946 0.0000
vt 0.9981 0.6659 0.0000
vt 0.9397 0.9946 0.0000
vt 0.0121 0.4371 0.0000
vt 0.1182 0.3649 0.0000
vt 0.8922 0.3649 0.0000
vt 0.9981 0.4371 0.0000
vt 0.1516 0.0085 0.0000
vt 0.0121 0.0085 0.0000
vt 0.0121 0.1741 0.0000
vt 0.2380 0.1271 0.0000
vt 0.4942 0.0085 0.0000
vt 0.4919 0.0606 0.0000
vt 0.8586 0.0085 0.0000
vt 0.9981 0.1741 0.0000
vt 0.9981 0.0085 0.0000
vt 0.7725 0.1271 0.0000
vt 0.9095 -0.3908 0.0000
vt 0.9461 -0.3908 0.0000
vt 0.9095 -0.2241 0.0000
vt 0.9461 -0.2241 0.0000
vt 0.9095 -0.0324 0.0000
vt 0.9461 -0.0324 0.0000
vt 0.0121 0.6686 0.0000
vt 0.0121 0.9973 0.0000
vt 0.0705 0.6686 0.0000
vt 0.0705 0.9973 0.0000
vt 0.9394 0.6686 0.0000
vt 0.9394 0.9973 0.0000
vt 0.9981 0.6686 0.0000
vt 0.9981 0.9973 0.0000
vt 0.0121 0.4398 0.0000
vt 0.1179 0.3676 0.0000
vt 0.8920 0.3676 0.0000
vt 0.9981 0.4398 0.0000
vt 0.1516 0.0113 0.0000
vt 0.0121 0.0113 0.0000
vt 0.0121 0.1769 0.0000
vt 0.2377 0.1298 0.0000
vt 0.5160 0.0113 0.0000
vt 0.5160 0.0634 0.0000
vt 0.8586 0.0113 0.0000
vt 0.9981 0.1769 0.0000
vt 0.9981 0.0113 0.0000
vt 0.7722 0.1298 0.0000
vt 0.9461 1.2861 0.0000
vt 0.9095 1.2861 0.0000
vt 0.9461 1.1194 0.0000
vt 0.9095 1.1194 0.0000
vt 0.9461 0.9277 0.0000
vt 0.9095 0.9277 0.0000
vt 0.1011 -0.2168 0.0000
vt 0.0244 -0.5312 0.0000
vt 0.1011 -0.5312 0.0000
vt 0.0244 -0.2168 0.0000
vt 0.1011 0.0642 0.0000
vt 0.0244 0.0642 0.0000
vt 0.0707 1.2171 0.0000
vt 0.0562 1.5312 0.0000
vt -0.0059 1.2136 0.0000
vt -0.0205 1.5277 0.0000
vt 0.1090 0.7223 0.0000
vt 0.0832 0.9418 0.0000
vt 0.0328 0.7134 0.0000
vt 0.0071 0.9329 0.0000
vt 0.0323 0.7249 0.0000
vt 0.1012 0.4876 0.0000
vt 0.0245 0.4886 0.0000
vt 0.0246 0.4918 0.0000
vt 0.0088 0.2799 0.0000
vt 0.0853 0.2741 0.0000
vt 0.0854 0.2853 0.0000
vt 0.0246 0.0588 0.0000
vt 0.0837 0.9364 0.0000
vt 0.9095 1.6179 0.0000
vt 0.9461 1.6179 0.0000
vt 0.8866 0.6837 0.0000
vt 0.9246 0.9934 0.0000
vt 0.9246 0.6807 0.0000
vt 0.8864 0.9934 0.0000
vt 0.8417 0.3949 0.0000
vt 0.8777 0.3831 0.0000
vt 0.7400 0.1807 0.0000
vt 0.7620 0.1533 0.0000
vt 0.5158 0.0895 0.0000
vt 0.5158 0.1269 0.0000
vt 0.2695 0.1810 0.0000
vt 0.2478 0.1535 0.0000
vt 0.1322 0.3831 0.0000
vt 0.1682 0.3949 0.0000
vt 0.0853 0.6807 0.0000
vt 0.1233 0.6837 0.0000
vt 0.0853 0.9934 0.0000
vt 0.1235 0.9934 0.0000
vt 0.9095 -0.7224 0.0000
vt 0.9461 -0.7224 0.0000
vt 0.8869 0.6810 0.0000
vt 0.9249 0.9907 0.0000
vt 0.9249 0.6780 0.0000
vt 0.8867 0.9907 0.0000
vt 0.8420 0.3922 0.0000
vt 0.8780 0.3804 0.0000
vt 0.7408 0.1783 0.0000
vt 0.7624 0.1508 0.0000
vt 0.4921 0.0868 0.0000
vt 0.4928 0.1241 0.0000
vt 0.2703 0.1779 0.0000
vt 0.2482 0.1506 0.0000
vt 0.1325 0.3804 0.0000
vt 0.1685 0.3922 0.0000
vt 0.0856 0.6780 0.0000
vt 0.1236 0.6810 0.0000
vt 0.0856 0.9907 0.0000
vt 0.1238 0.9907 0.0000
vt 0.0037 0.0004 0.0000
vt 0.0000 0.0000 0.0000
vt 0.4841 0.1155 0.0000
vt 0.0037 0.0006 0.0000
vt 0.1168 1.2308 0.0000
vt 0.0421 1.5303 0.0000
vt 0.0894 1.5308 0.0000
vt 0.1299 0.9469 0.0000
vt 0.1543 0.7301 0.0000
vt 0.1276 0.9588 0.0000
vt 0.1462 0.4851 0.0000
vt 0.1296 0.2614 0.0000
vt 0.1314 0.2858 0.0000
vt 0.1478 0.0558 0.0000
vt 0.1478 -0.2284 0.0000
vt 0.0870 -0.5309 0.0000
vt 0.1343 -0.5293 0.0000
vt 0.0040 0.0003 0.0000
vt 0.4846 0.0001 0.0000
vt 0.4551 0.0344 0.0000
vt 0.4846 0.0344 0.0000
vt 0.0039 0.0001 0.0000
vt -0.0223 -0.2284 0.0000
vt 0.0385 -0.5309 0.0000
vt -0.0088 -0.5292 0.0000
vt -0.0223 0.0559 0.0000
vt -0.0368 0.2739 0.0000
vt -0.0205 0.0439 0.0000
vt -0.0203 0.4960 0.0000
vt -0.0206 0.4891 0.0000
vt -0.0124 0.7357 0.0000
vt -0.0132 0.7105 0.0000
vt -0.0400 0.9391 0.0000
vt -0.0531 1.2230 0.0000
vt -0.0064 1.5280 0.0000
vt -0.0535 1.5242 0.0000
vt 0.4296 0.0924 0.0000
vt 0.4296 0.1090 0.0000
vt 0.1846 0.6845 0.0000
vt 0.2245 0.4278 0.0000
vt 0.8044 0.4278 0.0000
vt 0.8443 0.6845 0.0000
vt 0.8048 0.4233 0.0000
vt 0.8447 0.6800 0.0000
vt 0.1850 0.6800 0.0000
vt 0.2249 0.4233 0.0000
vt 0.7164 0.2427 0.0000
vt 0.3119 0.2431 0.0000
vt 0.3128 0.2382 0.0000
vt 0.7173 0.2385 0.0000
vt 0.1848 0.9753 0.0000
vt 0.8441 0.9753 0.0000
vt 0.8445 0.9708 0.0000
vt 0.1852 0.9708 0.0000
vt 0.5052 0.1919 0.0000
vt 0.5254 0.1965 0.0000
vt 0.7174 0.2386 0.0000
vt 0.5240 0.1965 0.0000
vt 0.3129 0.2381 0.0000
vt 0.5038 0.1919 0.0000
vt 0.7165 0.2427 0.0000
# 198 texture coords

g Box001
usemtl 01___Default
s off
f 1/1/1 2/2/1 3/3/1 
f 2/2/1 4/4/1 3/3/1 
f 5/5/1 6/6/1 7/7/1 
f 6/6/1 8/8/1 7/7/1 
f 9/9/2 10/10/2 11/11/2 
f 9/9/2 11/11/2 12/12/2 
f 13/13/2 9/9/2 12/12/2 
f 13/13/2 12/12/2 14/14/2 
f 15/15/2 16/16/2 17/17/2 
f 15/15/2 17/17/2 18/18/2 
f 19/19/3 2/20/3 20/21/3 
f 20/21/3 2/20/3 1/22/3 
f 21/23/3 5/24/3 22/25/3 
f 5/24/3 21/23/3 6/26/3 
f 23/27/3 20/21/3 24/28/3 
f 20/21/3 23/27/3 19/19/3 
f 25/29/3 21/23/3 26/30/3 
f 26/30/3 21/23/3 22/25/3 
f 12/31/3 11/32/3 27/33/3 
f 27/33/3 28/34/3 12/31/3 
f 14/35/3 12/31/3 28/34/3 
f 14/35/3 28/34/3 29/36/3 
f 17/37/3 30/38/3 18/39/3 
f 30/38/3 17/37/3 31/40/3 
f 22/41/4 5/5/4 32/42/4 
f 32/42/4 5/5/4 7/7/4 
f 26/43/5 22/41/5 33/44/5 
f 33/44/5 22/41/5 32/42/5 
f 18/18/5 30/45/5 15/15/5 
f 15/15/5 30/45/5 34/46/5 
f 32/47/6 7/48/6 35/49/6 
f 35/49/6 7/48/6 8/50/6 
f 36/51/6 3/52/6 37/53/6 
f 37/53/6 3/52/6 4/54/6 
f 33/55/6 35/49/6 38/56/6 
f 35/49/6 33/55/6 32/47/6 
f 39/57/6 36/51/6 40/58/6 
f 40/58/6 36/51/6 37/53/6 
f 16/59/6 15/60/6 34/61/6 
f 34/61/6 41/62/6 16/59/6 
f 13/63/6 16/59/6 41/62/6 
f 13/63/6 41/62/6 42/64/6 
f 9/65/6 43/66/6 10/67/6 
f 43/66/6 9/65/6 44/68/6 
f 37/69/7 4/4/7 19/70/7 
f 19/70/7 4/4/7 2/2/7 
f 40/71/7 37/69/7 23/72/7 
f 23/72/7 37/69/7 19/70/7 
f 10/10/7 43/73/7 11/11/7 
f 11/11/7 43/73/7 27/74/7 
f 45/75/8 46/76/8 47/77/8 
f 46/76/8 45/75/8 48/78/8 
f 49/79/9 48/78/9 45/75/9 
f 48/78/10 49/79/10 50/80/10 
f 51/81/11 52/82/11 53/83/11 
f 53/83/11 52/82/11 54/84/11 
f 55/85/12 56/86/12 57/87/12 
f 57/87/13 56/86/13 58/88/13 
f 57/89/14 59/90/14 55/85/14 
f 59/90/15 57/89/15 60/91/15 
f 16/16/2 13/13/2 14/14/2 
f 16/16/2 14/14/2 17/17/2 
f 14/35/3 31/40/3 17/37/3 
f 31/40/3 14/35/3 29/36/3 
f 13/63/6 44/68/6 9/65/6 
f 44/68/6 13/63/6 42/64/6 
f 60/92/16 61/93/16 62/94/16 
f 60/92/17 62/94/17 59/90/17 
f 28/34/3 27/33/3 24/28/3 
f 27/33/3 23/27/3 24/28/3 
f 30/38/3 25/29/3 26/30/3 
f 25/29/3 30/38/3 31/40/3 
f 30/45/5 33/44/5 34/46/5 
f 33/44/5 30/45/5 26/43/5 
f 41/62/6 34/61/6 38/56/6 
f 34/61/6 33/55/6 38/56/6 
f 43/66/6 39/57/6 40/58/6 
f 39/57/6 43/66/6 44/68/6 
f 43/73/7 23/72/7 27/74/7 
f 23/72/7 43/73/7 40/71/7 
f 62/95/18 50/96/18 49/79/18 
f 50/96/19 62/95/19 61/93/19 
f 58/88/20 51/81/20 53/83/20 
f 51/81/21 58/88/21 56/97/21 
f 46/98/22 1/1/22 47/99/22 
f 1/1/23 3/3/23 47/99/23 
f 63/100/24 64/101/24 65/102/24 
f 64/101/25 63/100/25 66/103/25 
f 65/102/24 67/104/24 63/100/24 
f 67/104/24 65/102/24 68/105/24 
f 69/106/26 67/104/26 68/105/26 
f 68/105/25 70/107/25 69/106/25 
f 69/106/27 71/108/27 72/109/27 
f 71/108/25 69/106/25 70/107/25 
f 73/110/6 71/108/6 74/111/6 
f 71/108/28 73/110/28 72/109/28 
f 73/110/24 75/112/24 76/113/24 
f 75/112/6 73/110/6 74/111/6 
f 76/113/6 77/114/6 78/115/6 
f 77/114/6 76/113/6 75/112/6 
f 78/115/26 79/116/26 80/117/26 
f 79/116/24 78/115/24 77/114/24 
f 54/118/1 8/8/1 6/6/1 
f 8/8/23 54/118/23 52/119/23 
f 81/120/29 82/121/29 83/122/29 
f 82/121/3 81/120/3 84/123/3 
f 83/122/30 85/124/30 81/120/30 
f 85/124/30 83/122/30 86/125/30 
f 87/126/29 85/124/29 86/125/29 
f 86/125/31 88/127/31 87/126/31 
f 87/126/32 89/128/32 90/129/32 
f 89/128/33 87/126/33 88/127/33 
f 91/130/34 89/128/34 92/131/34 
f 89/128/35 91/130/35 90/129/35 
f 91/130/3 93/132/3 94/133/3 
f 93/132/36 91/130/36 92/131/36 
f 94/133/29 95/134/29 96/135/29 
f 95/134/29 94/133/29 93/132/29 
f 96/135/37 97/136/37 98/137/37 
f 97/136/29 96/135/29 95/134/29 
f 77/114/38 8/50/38 79/116/38 
f 8/50/38 77/114/38 35/49/38 
f 52/138/39 80/139/39 8/140/39 
f 8/140/39 80/139/39 79/141/39 
f 78/142/40 52/143/40 51/81/40 
f 52/143/40 78/142/40 80/144/40 
f 76/145/41 51/81/41 56/97/41 
f 51/81/41 76/145/41 78/142/41 
f 73/146/42 56/86/42 55/85/42 
f 56/86/42 73/146/42 76/147/42 
f 55/85/43 59/90/43 72/148/43 
f 55/85/43 72/148/43 73/146/43 
f 62/94/44 72/148/44 59/90/44 
f 72/148/44 62/94/44 69/149/44 
f 69/150/45 49/79/45 67/151/45 
f 49/79/45 69/150/45 62/95/45 
f 67/151/46 45/75/46 63/152/46 
f 45/75/46 67/151/46 49/79/46 
f 63/152/47 47/153/47 66/154/47 
f 47/153/47 63/152/47 45/75/47 
f 3/139/39 66/155/39 47/156/39 
f 66/155/39 3/139/39 64/139/39 
f 65/102/48 3/52/48 36/51/48 
f 3/52/48 65/102/48 64/101/48 
f 68/105/49 36/51/49 39/57/49 
f 36/51/49 68/105/49 65/102/49 
f 70/107/50 39/57/50 44/68/50 
f 70/107/50 68/105/50 39/57/50 
f 70/107/51 42/64/51 71/108/51 
f 42/64/52 70/107/52 44/68/52 
f 74/111/53 71/108/53 42/64/53 
f 74/111/53 42/64/53 41/62/53 
f 74/111/54 38/56/54 75/112/54 
f 38/56/54 74/111/54 41/62/54 
f 75/112/55 35/49/55 77/114/55 
f 35/49/55 75/112/55 38/56/55 
f 95/134/56 1/22/56 97/136/56 
f 1/22/56 95/134/56 20/21/56 
f 1/157/57 46/158/57 98/139/57 
f 1/157/57 98/139/57 97/159/57 
f 96/160/58 46/161/58 48/78/58 
f 46/161/58 96/160/58 98/162/58 
f 94/163/59 48/78/59 50/80/59 
f 48/78/59 94/163/59 96/160/59 
f 91/164/60 50/96/60 61/93/60 
f 50/96/60 91/164/60 94/165/60 
f 90/166/61 91/164/61 61/93/61 
f 90/166/61 61/93/61 60/92/61 
f 90/167/62 57/89/62 87/168/62 
f 57/89/62 90/167/62 60/91/62 
f 87/169/63 58/88/63 85/170/63 
f 58/88/63 87/169/63 57/87/63 
f 85/170/64 53/83/64 81/171/64 
f 53/83/64 85/170/64 58/88/64 
f 81/171/65 54/172/65 84/173/65 
f 54/172/65 81/171/65 53/83/65 
f 6/139/57 84/174/57 54/139/57 
f 84/174/57 6/139/57 82/175/57 
f 83/122/66 6/26/66 21/23/66 
f 6/26/66 83/122/66 82/121/66 
f 86/125/67 21/23/67 25/29/67 
f 21/23/67 86/125/67 83/122/67 
f 88/127/68 25/29/68 31/40/68 
f 88/127/68 86/125/68 25/29/68 
f 29/36/69 88/127/69 31/40/69 
f 88/127/69 29/36/69 89/128/69 
f 29/36/70 28/34/70 92/131/70 
f 29/36/70 92/131/70 89/128/70 
f 92/131/71 24/28/71 93/132/71 
f 24/28/71 92/131/71 28/34/71 
f 93/132/72 20/21/72 95/134/72 
f 20/21/72 93/132/72 24/28/72 
s 2
f 53/176/3 58/177/3 50/178/37 
f 50/178/37 48/179/37 53/176/3 
f 56/180/26 51/181/26 45/182/25 
f 45/182/25 49/183/25 56/180/26 
s 8
f 61/184/3 50/178/3 58/177/37 
f 58/177/37 57/185/37 61/184/3 
f 49/183/26 62/186/26 55/187/25 
f 55/187/25 56/180/25 49/183/26 
f 54/188/3 53/176/3 48/179/37 
f 48/179/37 46/189/37 54/188/3 
f 51/181/26 52/190/24 47/191/25 
f 47/191/25 45/182/25 51/181/26 
s off
f 59/192/73 55/187/73 62/186/73 
f 60/193/74 61/184/74 57/185/74 
f 54/188/75 52/188/75 51/176/75 
f 51/181/75 53/181/75 54/190/75 
f 53/176/76 51/176/76 56/177/76 
f 56/180/77 58/180/77 53/181/77 
f 58/177/78 56/177/78 55/185/78 
f 55/187/79 57/194/79 58/180/79 
f 57/185/80 55/185/80 59/195/80 
f 59/195/81 60/193/81 57/185/81 
f 61/196/82 60/197/82 59/192/82 
f 59/192/83 62/186/83 61/196/83 
f 50/178/84 61/184/84 62/198/84 
f 62/186/85 49/183/85 50/183/85 
f 48/179/86 50/178/86 49/178/86 
f 49/183/87 45/182/87 48/182/87 
f 46/189/88 48/179/88 45/179/88 
f 45/179/88 47/189/88 46/189/88 
# 222 faces

